<svg xmlns="http://www.w3.org/2000/svg" width="31" height="24" viewBox="0 0 31 24">
  <g id="fog" transform="translate(-11.831 -22.037)">
    <path id="Path_19" data-name="Path 19" d="M33.82,38.5a9.134,9.134,0,0,1-6.4-2.7c-5.3-5.1-9.717-5.3-14.429-.9a.626.626,0,0,1-1.031-.3,1.2,1.2,0,0,1,.221-1.4c5.227-4.9,10.38-4.6,16.122.9,4.564,4.4,9.791,1.9,13.4-1,.368-.3.81-.1,1.031.4a1.219,1.219,0,0,1-.294,1.4C39.488,37.3,36.544,38.5,33.82,38.5Z" transform="translate(0 -0.131)" fill="#306afd"/>
    <path id="Path_20" data-name="Path 20" d="M33.82,46.037a9.184,9.184,0,0,1-6.4-2.671c-5.3-5.045-9.717-5.243-14.429-.89a.628.628,0,0,1-1.031-.3,1.182,1.182,0,0,1,.221-1.385c5.227-4.847,10.38-4.55,16.122.89,4.564,4.253,9.791,1.879,13.4-.989.368-.3.81-.1,1.031.4a1.2,1.2,0,0,1-.294,1.385C39.488,44.85,36.544,46.037,33.82,46.037Zm0-15.332a9.184,9.184,0,0,1-6.4-2.671c-5.3-5.045-9.717-5.243-14.429-.89a.628.628,0,0,1-1.031-.3,1.182,1.182,0,0,1,.221-1.385c5.227-4.847,10.38-4.55,16.122.89,4.564,4.352,9.791,1.879,13.4-.989.368-.3.81-.1,1.031.4a1.2,1.2,0,0,1-.294,1.385C39.488,29.518,36.544,30.705,33.82,30.705Z" transform="translate(0 0)" fill="#306afd"/>
  </g>
</svg>

