<svg xmlns="http://www.w3.org/2000/svg" width="20" height="20" viewBox="0 0 28.997 28">
  <path id="Path_11" data-name="Path 11" d="M20.773,23.333V20.667h1.318a5.277,5.277,0,0,0,4.979-3.587,5.371,5.371,0,0,0-1.717-5.934,5.225,5.225,0,0,0-6.106-.306,7.923,7.923,0,1,0-9.021,9.716v2.7A10.676,10.676,0,0,1,11.546,2a10.524,10.524,0,0,1,9.2,5.449,7.867,7.867,0,0,1,7.7,3.123,8.076,8.076,0,0,1,.708,8.359,7.9,7.9,0,0,1-7.061,4.4Zm-7.6.976L15.5,21.952l2.331,2.357a3.36,3.36,0,0,1,0,4.714,3.269,3.269,0,0,1-4.66,0A3.36,3.36,0,0,1,13.17,24.309Z" transform="translate(-1.001 -2)" fill="#306afd"/>
</svg>
