<svg id="Group_60" data-name="Group 60" xmlns="http://www.w3.org/2000/svg" width="40" height="40" viewBox="0 0 40 40">
  <path id="Path_13" data-name="Path 13" d="M0,0H40V40H0Z" fill="none"/>
  <path id="Path_14" data-name="Path 14" d="M20,30.364A10.364,10.364,0,1,1,30.364,20,10.364,10.364,0,0,1,20,30.364Zm0-3.455A6.909,6.909,0,1,0,13.091,20,6.909,6.909,0,0,0,20,26.909ZM18.273,1h3.455V6.182H18.273Zm0,32.818h3.455V39H18.273ZM5.344,7.786,7.786,5.344,11.45,9.008,9.008,11.45,5.344,7.788ZM28.55,30.992l2.442-2.442,3.664,3.664-2.442,2.442Zm3.664-25.65,2.442,2.444L30.992,11.45,28.55,9.008l3.664-3.664ZM9.008,28.55l2.442,2.442L7.786,34.656,5.344,32.214,9.008,28.55ZM39,18.273v3.455H33.818V18.273Zm-32.818,0v3.455H1V18.273Z" fill="#306afd"/>
</svg>
