<svg id="Group_45" data-name="Group 45" xmlns="http://www.w3.org/2000/svg" width="35" height="35" viewBox="0 0 35 35">
  <path id="Path_6" data-name="Path 6" d="M0,0H35V35H0Z" fill="none"/>
  <path id="Path_7" data-name="Path 7" d="M15.175,25.25H5.1v-3.1H15.175a5.425,5.425,0,1,1-5.081,7.332l2.9-1.09a2.325,2.325,0,1,0,2.178-3.142Zm-8.525-9.3H27.575a5.425,5.425,0,1,1-5.081,7.332l2.9-1.09a2.325,2.325,0,1,0,2.178-3.142H6.65a4.65,4.65,0,0,1,0-9.3H19.825a2.325,2.325,0,1,0-2.178-3.142l-2.9-1.088a5.426,5.426,0,1,1,5.081,7.33H6.65a1.55,1.55,0,0,0,0,3.1Z" transform="translate(0 0)" fill="#306afd"/>
</svg>
